<svg data-v-423bf9ae="" xmlns="http://www.w3.org/2000/svg" viewBox="0 0 247.60122799516128 60" class="font"><!----><!----><!----><g data-v-423bf9ae="" id="6a642c77-3abf-4d79-bd0c-717f5696eb88" fill="white" transform="matrix(4.497751394534302,0,0,4.497751394534302,-1.889054407285073,-14.797601439605096)"><path d="M8.20 4.89L8.20 4.89L8.20 4.89Q9.27 6.26 9.27 8.36L9.27 8.36L9.27 8.36Q9.27 10.46 8.20 11.86L8.20 11.86L8.20 11.86Q7.13 13.26 5.52 13.62L5.52 13.62L5.52 13.62Q5.66 13.71 6.13 13.97L6.13 13.97L6.13 13.97Q6.59 14.24 6.73 14.32L6.73 14.32L6.73 14.32Q6.86 14.39 7.24 14.58L7.24 14.58L7.24 14.58Q7.62 14.77 7.81 14.83L7.81 14.83L7.81 14.83Q8.01 14.88 8.34 14.98L8.34 14.98L8.34 14.98Q8.85 15.15 9.63 15.15L9.63 15.15L9.63 15.15Q9.63 15.79 9.32 16.21L9.32 16.21L9.32 16.21Q9.02 16.63 8.44 16.63L8.44 16.63L8.44 16.63Q7.87 16.63 7.32 16.38L7.32 16.38L7.32 16.38Q6.78 16.13 6.43 15.83L6.43 15.83L6.43 15.83Q6.08 15.53 5.48 14.97L5.48 14.97L5.48 14.97Q4.89 14.41 4.53 14.13L4.53 14.13L4.53 14.13Q4.17 13.85 3.16 13.50L3.16 13.50L3.16 13.50Q2.00 13.12 1.21 11.97L1.21 11.97L1.21 11.97Q0.42 10.82 0.42 8.95L0.42 8.95L0.42 8.95Q0.42 6.69 1.74 5.11L1.74 5.11L1.74 5.11Q3.05 3.53 5.09 3.53L5.09 3.53L5.09 3.53Q7.13 3.53 8.20 4.89ZM5.07 12.39L5.07 12.39L5.07 12.39Q5.87 12.39 6.43 11.76L6.43 11.76L6.43 11.76Q7.42 10.63 7.42 8.50L7.42 8.50L7.42 8.50Q7.42 6.83 6.74 5.82L6.74 5.82L6.74 5.82Q6.06 4.82 4.62 4.82L4.62 4.82L4.62 4.82Q3.77 4.82 3.08 5.36L3.08 5.36L3.08 5.36Q2.70 5.96 2.48 6.93L2.48 6.93L2.48 6.93Q2.27 7.90 2.27 8.81L2.27 8.81L2.27 8.81Q2.27 10.46 2.94 11.42L2.94 11.42L2.94 11.42Q3.61 12.39 5.07 12.39ZM10.57 12.21L10.57 12.21L10.71 9.30L10.71 9.30Q10.71 7.94 10.32 6.72L10.32 6.72L10.32 6.72Q10.71 6.55 11.28 6.55L11.28 6.55L11.28 6.55Q12.40 6.55 12.40 7.80L12.40 7.80L12.40 7.80Q12.40 8.50 12.25 9.77L12.25 9.77L12.25 9.77Q12.10 11.03 12.10 11.61L12.10 11.61L12.10 11.61Q12.10 12.31 12.73 12.31L12.73 12.31L12.73 12.31Q13.10 12.31 13.62 11.67L13.62 11.67L13.62 11.67Q14.13 11.03 14.50 10.24L14.50 10.24L14.50 10.24Q14.87 9.45 14.94 8.95L14.94 8.95L14.94 8.95Q14.85 7.41 14.70 6.72L14.70 6.72L14.70 6.72Q15.15 6.55 15.62 6.55L15.62 6.55L15.62 6.55Q16.09 6.55 16.40 6.85L16.40 6.85L16.40 6.85Q16.72 7.14 16.72 7.57L16.72 7.57L16.72 7.57Q16.72 8.01 16.59 9.02L16.59 9.02L16.59 9.02Q16.46 10.02 16.46 11.12L16.46 11.12L16.46 11.12Q16.46 12.22 16.72 13.47L16.72 13.47L16.72 13.47Q16.17 13.64 15.74 13.64L15.74 13.64L15.74 13.64Q14.87 13.64 14.87 12.49L14.87 12.49L14.87 12.49Q14.87 11.98 14.98 11.09L14.98 11.09L14.98 11.09Q14.42 12.28 13.62 13.00L13.62 13.00L13.62 13.00Q12.81 13.72 11.98 13.72L11.98 13.72L11.98 13.72Q10.57 13.72 10.57 12.21ZM18.70 3.53L18.70 3.53L18.70 3.53Q19.80 3.70 21.91 3.70L21.91 3.70L21.91 3.70Q22.74 3.70 22.79 4.58L22.79 4.58L22.79 4.58Q22.88 6.20 22.88 7.50L22.88 7.50L22.88 7.50Q22.88 8.81 22.76 10.08L22.76 10.08L22.76 10.08Q22.64 11.63 21.71 12.71L21.71 12.71L21.71 12.71Q20.78 13.79 19.35 13.79L19.35 13.79L19.35 13.79Q18.56 13.79 17.99 13.36L17.99 13.36L17.99 13.36Q17.42 12.94 17.42 12.31L17.42 12.31L17.42 12.31Q17.42 11.69 17.76 11.29L17.76 11.29L17.76 11.29Q18.10 10.89 18.62 10.89L18.62 10.89L18.62 10.89Q18.87 10.89 19.08 10.99L19.08 10.99L19.08 10.99Q18.98 11.24 18.98 11.56L18.98 11.56L18.98 11.56Q18.98 11.87 19.20 12.15L19.20 12.15L19.20 12.15Q19.42 12.42 19.79 12.42L19.79 12.42L19.79 12.42Q20.16 12.42 20.42 12.15L20.42 12.15L20.42 12.15Q20.68 11.87 20.80 11.37L20.80 11.37L20.80 11.37Q21.11 10.23 21.11 8.48L21.11 8.48L21.11 8.48Q21.11 6.72 20.93 5.08L20.93 5.08L20.93 5.08Q20.71 5.08 20.21 5.19L20.21 5.19L20.21 5.19Q19.71 5.29 19.52 5.29L19.52 5.29L19.52 5.29Q18.54 5.29 18.54 4.30L18.54 4.30L18.54 4.30Q18.54 3.95 18.70 3.53ZM30.77 7.04L30.77 7.04L30.77 7.04Q30.39 8.65 30.39 10.27L30.39 10.27L30.39 10.27Q30.39 11.89 30.76 13.47L30.76 13.47L30.76 13.47Q30.25 13.64 29.72 13.64L29.72 13.64L29.72 13.64Q29.19 13.64 28.98 13.32L28.98 13.32L28.98 13.32Q28.77 13.01 28.77 12.41L28.77 12.41L28.77 12.41Q28.77 11.82 28.95 10.78L28.95 10.78L28.95 10.78Q27.96 12.91 27.03 13.47L27.03 13.47L27.03 13.47Q26.61 13.72 26.17 13.72L26.17 13.72L26.17 13.72Q25.10 13.72 24.51 12.93L24.51 12.93L24.51 12.93Q23.93 12.14 23.93 10.96L23.93 10.96L23.93 10.96Q23.93 9.17 24.92 7.82L24.92 7.82L24.92 7.82Q25.91 6.47 27.50 6.47L27.50 6.47L27.50 6.47Q29.09 6.47 30.77 7.04ZM28.94 7.88L28.94 7.88L28.94 7.88Q28.20 7.66 27.68 7.66L27.68 7.66L27.68 7.66Q26.63 7.66 26.11 8.12L26.11 8.12L26.11 8.12Q25.63 9.30 25.63 10.51L25.63 10.51L25.63 10.51Q25.63 11.16 25.84 11.82L25.84 11.82L25.84 11.82Q26.04 12.47 26.46 12.47L26.46 12.47L26.46 12.47Q26.95 12.47 27.72 11.03L27.72 11.03L27.72 11.03Q28.49 9.59 28.94 7.88ZM37.48 11.42L37.48 11.42L37.48 11.42Q36.99 12.38 36.25 13.05L36.25 13.05L36.25 13.05Q35.50 13.72 34.76 13.72L34.76 13.72L34.76 13.72Q34.02 13.72 33.62 13.21L33.62 13.21L33.62 13.21Q33.22 12.70 33.05 11.89L33.05 11.89L33.05 11.89Q32.89 11.09 32.75 10.23L32.75 10.23L32.75 10.23Q32.62 9.38 32.30 8.57L32.30 8.57L32.30 8.57Q31.98 7.76 31.42 7.35L31.42 7.35L31.42 7.35Q31.60 7.01 31.96 6.78L31.96 6.78L31.96 6.78Q32.33 6.55 32.75 6.55L32.75 6.55L32.75 6.55Q33.40 6.55 33.81 7.40L33.81 7.40L33.81 7.40Q34.22 8.25 34.34 9.27L34.34 9.27L34.34 9.27Q34.45 10.29 34.60 11.25L34.60 11.25L34.60 11.25Q34.75 12.21 34.94 12.35L34.94 12.35L34.94 12.35Q35.42 12.32 35.78 11.74L35.78 11.74L35.78 11.74Q36.13 11.16 36.30 10.33L36.30 10.33L36.30 10.33Q36.61 8.82 36.61 7.97L36.61 7.97L36.61 7.97Q36.61 7.11 36.53 6.65L36.53 6.65L36.53 6.65Q37.02 6.55 37.37 6.55L37.37 6.55L37.37 6.55Q38.57 6.55 38.57 7.70L38.57 7.70L38.57 7.70Q38.57 8.43 38.27 9.44L38.27 9.44L38.27 9.44Q37.97 10.46 37.48 11.42ZM39.49 6.68L39.49 6.68L39.49 6.68Q39.94 6.55 40.40 6.55L40.40 6.55L40.40 6.55Q40.85 6.55 41.17 6.83L41.17 6.83L41.17 6.83Q41.50 7.11 41.50 7.55L41.50 7.55L41.50 7.55Q41.50 7.99 41.35 9.08L41.35 9.08L41.35 9.08Q41.20 10.16 41.20 10.77L41.20 10.77L41.20 10.77Q41.20 12.33 41.50 13.47L41.50 13.47L41.50 13.47Q41.06 13.64 40.56 13.64L40.56 13.64L40.56 13.64Q40.05 13.64 39.76 13.41L39.76 13.41L39.76 13.41Q39.47 13.17 39.47 12.73L39.47 12.73L39.47 12.73Q39.47 12.29 39.63 11.28L39.63 11.28L39.63 11.28Q39.80 10.28 39.80 9.62L39.80 9.62L39.80 9.62Q39.80 7.87 39.49 6.68ZM39.68 3.51L39.68 3.51L39.68 3.51Q40.17 3.29 40.64 3.29L40.64 3.29L40.64 3.29Q41.12 3.29 41.35 3.54L41.35 3.54L41.35 3.54Q41.58 3.78 41.58 4.26L41.58 4.26L41.58 4.26Q41.58 4.73 41.27 5.10L41.27 5.10L41.27 5.10Q40.95 5.46 40.45 5.46L40.45 5.46L40.45 5.46Q39.41 5.46 39.41 4.38L39.41 4.38L39.41 4.38Q39.41 3.91 39.68 3.51ZM44.27 10.46L44.27 10.46L44.27 10.46Q44.27 11.47 44.59 12.05L44.59 12.05L44.59 12.05Q44.91 12.63 45.67 12.63L45.67 12.63L45.67 12.63Q46.42 12.63 46.85 12.12L46.85 12.12L46.85 12.12Q47.28 11.61 47.28 10.88L47.28 10.88L47.28 10.88Q47.75 10.88 48.10 11.12L48.10 11.12L48.10 11.12Q48.45 11.35 48.45 11.77L48.45 11.77L48.45 11.77Q48.45 12.64 47.53 13.22L47.53 13.22L47.53 13.22Q46.61 13.80 45.58 13.80L45.58 13.80L45.58 13.80Q43.99 13.80 43.27 12.94L43.27 12.94L43.27 12.94Q42.56 12.08 42.56 10.39L42.56 10.39L42.56 10.39Q42.56 8.69 43.52 7.54L43.52 7.54L43.52 7.54Q44.48 6.38 46.07 6.38L46.07 6.38L46.07 6.38Q47.17 6.38 47.83 6.88L47.83 6.88L47.83 6.88Q48.50 7.38 48.50 8.42L48.50 8.42L48.50 8.42Q48.50 9.46 47.55 9.99L47.55 9.99L47.55 9.99Q46.61 10.51 45.25 10.51L45.25 10.51L45.25 10.51Q44.77 10.51 44.27 10.46ZM44.28 9.35L44.28 9.35L44.28 9.35Q44.70 9.44 45.16 9.44L45.16 9.44L45.16 9.44Q46.17 9.44 46.86 9.06L46.86 9.06L46.86 9.06Q46.94 8.72 46.94 8.53L46.94 8.53L46.94 8.53Q46.94 8.04 46.59 7.78L46.59 7.78L46.59 7.78Q46.24 7.53 45.63 7.53L45.63 7.53L45.63 7.53Q45.02 7.53 44.53 7.92L44.53 7.92L44.53 7.92Q44.28 8.65 44.28 9.35ZM51.87 13.47L51.87 13.47Q51.44 13.64 50.95 13.64L50.95 13.64L50.95 13.64Q50.46 13.64 50.16 13.41L50.16 13.41L50.16 13.41Q49.85 13.17 49.85 12.76L49.85 12.76L49.85 12.76Q49.85 12.35 49.98 11.26L49.98 11.26L49.98 11.26Q50.11 10.16 50.11 9.14L50.11 9.14L50.11 9.14Q50.11 8.11 49.78 6.72L49.78 6.72L49.78 6.72Q50.23 6.55 50.67 6.55L50.67 6.55L50.67 6.55Q51.10 6.55 51.42 6.85L51.42 6.85L51.42 6.85Q51.73 7.14 51.73 7.63L51.73 7.63L51.73 7.63Q51.73 7.88 51.65 8.38L51.65 8.38L51.65 8.38Q51.56 8.88 51.55 9.13L51.55 9.13L51.55 9.13Q52.09 7.88 52.84 7.18L52.84 7.18L52.84 7.18Q53.59 6.47 54.33 6.47L54.33 6.47L54.33 6.47Q54.85 6.47 55.16 6.83L55.16 6.83L55.16 6.83Q55.47 7.20 55.47 7.75L55.47 7.75L55.47 7.75Q55.47 8.30 55.19 8.64L55.19 8.64L55.19 8.64Q54.91 8.99 54.50 8.99L54.50 8.99L54.50 8.99Q54.08 8.99 53.83 8.90L53.83 8.90L53.83 8.90Q53.87 8.74 53.87 8.60L53.87 8.60L53.87 8.60Q53.87 8.02 53.47 8.02L53.47 8.02L53.47 8.02Q52.85 8.02 52.31 9.26L52.31 9.26L52.31 9.26Q51.77 10.50 51.59 11.58L51.59 11.58L51.59 11.58Q51.66 12.63 51.87 13.47L51.87 13.47Z"></path></g><!----><!----></svg>