<svg data-v-423bf9ae="" xmlns="http://www.w3.org/2000/svg" viewBox="0 0 368 101" class="iconLeftSlogan"><!----><!----><!----><g data-v-423bf9ae="" id="bda36bda-41e3-40b7-830a-76466e14e14f" fill="#ffffff" transform="matrix(4.497751394534302,0,0,4.497751394534302,118.2845219476954,-14.797601439605096)"><path d="M8.20 4.89L8.20 4.89L8.20 4.89Q9.27 6.26 9.27 8.36L9.27 8.36L9.27 8.36Q9.27 10.46 8.20 11.86L8.20 11.86L8.20 11.86Q7.13 13.26 5.52 13.62L5.52 13.62L5.52 13.62Q5.66 13.71 6.13 13.97L6.13 13.97L6.13 13.97Q6.59 14.24 6.73 14.32L6.73 14.32L6.73 14.32Q6.86 14.39 7.24 14.58L7.24 14.58L7.24 14.58Q7.62 14.77 7.81 14.83L7.81 14.83L7.81 14.83Q8.01 14.88 8.34 14.98L8.34 14.98L8.34 14.98Q8.85 15.15 9.63 15.15L9.63 15.15L9.63 15.15Q9.63 15.79 9.32 16.21L9.32 16.21L9.32 16.21Q9.02 16.63 8.44 16.63L8.44 16.63L8.44 16.63Q7.87 16.63 7.32 16.38L7.32 16.38L7.32 16.38Q6.78 16.13 6.43 15.83L6.43 15.83L6.43 15.83Q6.08 15.53 5.48 14.97L5.48 14.97L5.48 14.97Q4.89 14.41 4.53 14.13L4.53 14.13L4.53 14.13Q4.17 13.85 3.16 13.50L3.16 13.50L3.16 13.50Q2.00 13.12 1.21 11.97L1.21 11.97L1.21 11.97Q0.42 10.82 0.42 8.95L0.42 8.95L0.42 8.95Q0.42 6.69 1.74 5.11L1.74 5.11L1.74 5.11Q3.05 3.53 5.09 3.53L5.09 3.53L5.09 3.53Q7.13 3.53 8.20 4.89ZM5.07 12.39L5.07 12.39L5.07 12.39Q5.87 12.39 6.43 11.76L6.43 11.76L6.43 11.76Q7.42 10.63 7.42 8.50L7.42 8.50L7.42 8.50Q7.42 6.83 6.74 5.82L6.74 5.82L6.74 5.82Q6.06 4.82 4.62 4.82L4.62 4.82L4.62 4.82Q3.77 4.82 3.08 5.36L3.08 5.36L3.08 5.36Q2.70 5.96 2.48 6.93L2.48 6.93L2.48 6.93Q2.27 7.90 2.27 8.81L2.27 8.81L2.27 8.81Q2.27 10.46 2.94 11.42L2.94 11.42L2.94 11.42Q3.61 12.39 5.07 12.39ZM10.57 12.21L10.57 12.21L10.71 9.30L10.71 9.30Q10.71 7.94 10.32 6.72L10.32 6.72L10.32 6.72Q10.71 6.55 11.28 6.55L11.28 6.55L11.28 6.55Q12.40 6.55 12.40 7.80L12.40 7.80L12.40 7.80Q12.40 8.50 12.25 9.77L12.25 9.77L12.25 9.77Q12.10 11.03 12.10 11.61L12.10 11.61L12.10 11.61Q12.10 12.31 12.73 12.31L12.73 12.31L12.73 12.31Q13.10 12.31 13.62 11.67L13.62 11.67L13.62 11.67Q14.13 11.03 14.50 10.24L14.50 10.24L14.50 10.24Q14.87 9.45 14.94 8.95L14.94 8.95L14.94 8.95Q14.85 7.41 14.70 6.72L14.70 6.72L14.70 6.72Q15.15 6.55 15.62 6.55L15.62 6.55L15.62 6.55Q16.09 6.55 16.40 6.85L16.40 6.85L16.40 6.85Q16.72 7.14 16.72 7.57L16.72 7.57L16.72 7.57Q16.72 8.01 16.59 9.02L16.59 9.02L16.59 9.02Q16.46 10.02 16.46 11.12L16.46 11.12L16.46 11.12Q16.46 12.22 16.72 13.47L16.72 13.47L16.72 13.47Q16.17 13.64 15.74 13.64L15.74 13.64L15.74 13.64Q14.87 13.64 14.87 12.49L14.87 12.49L14.87 12.49Q14.87 11.98 14.98 11.09L14.98 11.09L14.98 11.09Q14.42 12.28 13.62 13.00L13.62 13.00L13.62 13.00Q12.81 13.72 11.98 13.72L11.98 13.72L11.98 13.72Q10.57 13.72 10.57 12.21ZM18.70 3.53L18.70 3.53L18.70 3.53Q19.80 3.70 21.91 3.70L21.91 3.70L21.91 3.70Q22.74 3.70 22.79 4.58L22.79 4.58L22.79 4.58Q22.88 6.20 22.88 7.50L22.88 7.50L22.88 7.50Q22.88 8.81 22.76 10.08L22.76 10.08L22.76 10.08Q22.64 11.63 21.71 12.71L21.71 12.71L21.71 12.71Q20.78 13.79 19.35 13.79L19.35 13.79L19.35 13.79Q18.56 13.79 17.99 13.36L17.99 13.36L17.99 13.36Q17.42 12.94 17.42 12.31L17.42 12.31L17.42 12.31Q17.42 11.69 17.76 11.29L17.76 11.29L17.76 11.29Q18.10 10.89 18.62 10.89L18.62 10.89L18.62 10.89Q18.87 10.89 19.08 10.99L19.08 10.99L19.08 10.99Q18.98 11.24 18.98 11.56L18.98 11.56L18.98 11.56Q18.98 11.87 19.20 12.15L19.20 12.15L19.20 12.15Q19.42 12.42 19.79 12.42L19.79 12.42L19.79 12.42Q20.16 12.42 20.42 12.15L20.42 12.15L20.42 12.15Q20.68 11.87 20.80 11.37L20.80 11.37L20.80 11.37Q21.11 10.23 21.11 8.48L21.11 8.48L21.11 8.48Q21.11 6.72 20.93 5.08L20.93 5.08L20.93 5.08Q20.71 5.08 20.21 5.19L20.21 5.19L20.21 5.19Q19.71 5.29 19.52 5.29L19.52 5.29L19.52 5.29Q18.54 5.29 18.54 4.30L18.54 4.30L18.54 4.30Q18.54 3.95 18.70 3.53ZM30.77 7.04L30.77 7.04L30.77 7.04Q30.39 8.65 30.39 10.27L30.39 10.27L30.39 10.27Q30.39 11.89 30.76 13.47L30.76 13.47L30.76 13.47Q30.25 13.64 29.72 13.64L29.72 13.64L29.72 13.64Q29.19 13.64 28.98 13.32L28.98 13.32L28.98 13.32Q28.77 13.01 28.77 12.41L28.77 12.41L28.77 12.41Q28.77 11.82 28.95 10.78L28.95 10.78L28.95 10.78Q27.96 12.91 27.03 13.47L27.03 13.47L27.03 13.47Q26.61 13.72 26.17 13.72L26.17 13.72L26.17 13.72Q25.10 13.72 24.51 12.93L24.51 12.93L24.51 12.93Q23.93 12.14 23.93 10.96L23.93 10.96L23.93 10.96Q23.93 9.17 24.92 7.82L24.92 7.82L24.92 7.82Q25.91 6.47 27.50 6.47L27.50 6.47L27.50 6.47Q29.09 6.47 30.77 7.04ZM28.94 7.88L28.94 7.88L28.94 7.88Q28.20 7.66 27.68 7.66L27.68 7.66L27.68 7.66Q26.63 7.66 26.11 8.12L26.11 8.12L26.11 8.12Q25.63 9.30 25.63 10.51L25.63 10.51L25.63 10.51Q25.63 11.16 25.84 11.82L25.84 11.82L25.84 11.82Q26.04 12.47 26.46 12.47L26.46 12.47L26.46 12.47Q26.95 12.47 27.72 11.03L27.72 11.03L27.72 11.03Q28.49 9.59 28.94 7.88ZM37.48 11.42L37.48 11.42L37.48 11.42Q36.99 12.38 36.25 13.05L36.25 13.05L36.25 13.05Q35.50 13.72 34.76 13.72L34.76 13.72L34.76 13.72Q34.02 13.72 33.62 13.21L33.62 13.21L33.62 13.21Q33.22 12.70 33.05 11.89L33.05 11.89L33.05 11.89Q32.89 11.09 32.75 10.23L32.75 10.23L32.75 10.23Q32.62 9.38 32.30 8.57L32.30 8.57L32.30 8.57Q31.98 7.76 31.42 7.35L31.42 7.35L31.42 7.35Q31.60 7.01 31.96 6.78L31.96 6.78L31.96 6.78Q32.33 6.55 32.75 6.55L32.75 6.55L32.75 6.55Q33.40 6.55 33.81 7.40L33.81 7.40L33.81 7.40Q34.22 8.25 34.34 9.27L34.34 9.27L34.34 9.27Q34.45 10.29 34.60 11.25L34.60 11.25L34.60 11.25Q34.75 12.21 34.94 12.35L34.94 12.35L34.94 12.35Q35.42 12.32 35.78 11.74L35.78 11.74L35.78 11.74Q36.13 11.16 36.30 10.33L36.30 10.33L36.30 10.33Q36.61 8.82 36.61 7.97L36.61 7.97L36.61 7.97Q36.61 7.11 36.53 6.65L36.53 6.65L36.53 6.65Q37.02 6.55 37.37 6.55L37.37 6.55L37.37 6.55Q38.57 6.55 38.57 7.70L38.57 7.70L38.57 7.70Q38.57 8.43 38.27 9.44L38.27 9.44L38.27 9.44Q37.97 10.46 37.48 11.42ZM39.49 6.68L39.49 6.68L39.49 6.68Q39.94 6.55 40.40 6.55L40.40 6.55L40.40 6.55Q40.85 6.55 41.17 6.83L41.17 6.83L41.17 6.83Q41.50 7.11 41.50 7.55L41.50 7.55L41.50 7.55Q41.50 7.99 41.35 9.08L41.35 9.08L41.35 9.08Q41.20 10.16 41.20 10.77L41.20 10.77L41.20 10.77Q41.20 12.33 41.50 13.47L41.50 13.47L41.50 13.47Q41.06 13.64 40.56 13.64L40.56 13.64L40.56 13.64Q40.05 13.64 39.76 13.41L39.76 13.41L39.76 13.41Q39.47 13.17 39.47 12.73L39.47 12.73L39.47 12.73Q39.47 12.29 39.63 11.28L39.63 11.28L39.63 11.28Q39.80 10.28 39.80 9.62L39.80 9.62L39.80 9.62Q39.80 7.87 39.49 6.68ZM39.68 3.51L39.68 3.51L39.68 3.51Q40.17 3.29 40.64 3.29L40.64 3.29L40.64 3.29Q41.12 3.29 41.35 3.54L41.35 3.54L41.35 3.54Q41.58 3.78 41.58 4.26L41.58 4.26L41.58 4.26Q41.58 4.73 41.27 5.10L41.27 5.10L41.27 5.10Q40.95 5.46 40.45 5.46L40.45 5.46L40.45 5.46Q39.41 5.46 39.41 4.38L39.41 4.38L39.41 4.38Q39.41 3.91 39.68 3.51ZM44.27 10.46L44.27 10.46L44.27 10.46Q44.27 11.47 44.59 12.05L44.59 12.05L44.59 12.05Q44.91 12.63 45.67 12.63L45.67 12.63L45.67 12.63Q46.42 12.63 46.85 12.12L46.85 12.12L46.85 12.12Q47.28 11.61 47.28 10.88L47.28 10.88L47.28 10.88Q47.75 10.88 48.10 11.12L48.10 11.12L48.10 11.12Q48.45 11.35 48.45 11.77L48.45 11.77L48.45 11.77Q48.45 12.64 47.53 13.22L47.53 13.22L47.53 13.22Q46.61 13.80 45.58 13.80L45.58 13.80L45.58 13.80Q43.99 13.80 43.27 12.94L43.27 12.94L43.27 12.94Q42.56 12.08 42.56 10.39L42.56 10.39L42.56 10.39Q42.56 8.69 43.52 7.54L43.52 7.54L43.52 7.54Q44.48 6.38 46.07 6.38L46.07 6.38L46.07 6.38Q47.17 6.38 47.83 6.88L47.83 6.88L47.83 6.88Q48.50 7.38 48.50 8.42L48.50 8.42L48.50 8.42Q48.50 9.46 47.55 9.99L47.55 9.99L47.55 9.99Q46.61 10.51 45.25 10.51L45.25 10.51L45.25 10.51Q44.77 10.51 44.27 10.46ZM44.28 9.35L44.28 9.35L44.28 9.35Q44.70 9.44 45.16 9.44L45.16 9.44L45.16 9.44Q46.17 9.44 46.86 9.06L46.86 9.06L46.86 9.06Q46.94 8.72 46.94 8.53L46.94 8.53L46.94 8.53Q46.94 8.04 46.59 7.78L46.59 7.78L46.59 7.78Q46.24 7.53 45.63 7.53L45.63 7.53L45.63 7.53Q45.02 7.53 44.53 7.92L44.53 7.92L44.53 7.92Q44.28 8.65 44.28 9.35ZM51.87 13.47L51.87 13.47Q51.44 13.64 50.95 13.64L50.95 13.64L50.95 13.64Q50.46 13.64 50.16 13.41L50.16 13.41L50.16 13.41Q49.85 13.17 49.85 12.76L49.85 12.76L49.85 12.76Q49.85 12.35 49.98 11.26L49.98 11.26L49.98 11.26Q50.11 10.16 50.11 9.14L50.11 9.14L50.11 9.14Q50.11 8.11 49.78 6.72L49.78 6.72L49.78 6.72Q50.23 6.55 50.67 6.55L50.67 6.55L50.67 6.55Q51.10 6.55 51.42 6.85L51.42 6.85L51.42 6.85Q51.73 7.14 51.73 7.63L51.73 7.63L51.73 7.63Q51.73 7.88 51.65 8.38L51.65 8.38L51.65 8.38Q51.56 8.88 51.55 9.13L51.55 9.13L51.55 9.13Q52.09 7.88 52.84 7.18L52.84 7.18L52.84 7.18Q53.59 6.47 54.33 6.47L54.33 6.47L54.33 6.47Q54.85 6.47 55.16 6.83L55.16 6.83L55.16 6.83Q55.47 7.20 55.47 7.75L55.47 7.75L55.47 7.75Q55.47 8.30 55.19 8.64L55.19 8.64L55.19 8.64Q54.91 8.99 54.50 8.99L54.50 8.99L54.50 8.99Q54.08 8.99 53.83 8.90L53.83 8.90L53.83 8.90Q53.87 8.74 53.87 8.60L53.87 8.60L53.87 8.60Q53.87 8.02 53.47 8.02L53.47 8.02L53.47 8.02Q52.85 8.02 52.31 9.26L52.31 9.26L52.31 9.26Q51.77 10.50 51.59 11.58L51.59 11.58L51.59 11.58Q51.66 12.63 51.87 13.47L51.87 13.47Z"></path></g><!----><g data-v-423bf9ae="" id="457abf43-280c-4360-a53a-e4992f732ca5" transform="matrix(1.0555555555555556,0,0,1.0555555555555556,-2.2478995058271636,-2.305555555555557)" stroke="none" fill="#00A3DD"><path d="M85.1 51.2c-4.8 0-8.9 2.6-11.2 6.5l-9-3.8c.8-2.1 1.2-4.3 1.2-6.6 0-4.2-1.4-8.1-3.8-11.2l15.6-14c1.6 1.1 3.5 1.7 5.5 1.7 5.3 0 9.6-4.3 9.6-9.6s-4.3-9.6-9.6-9.6-9.6 4.3-9.6 9.6c0 1.9.6 3.7 1.5 5.2l-15.5 14c-3.3-2.9-7.6-4.6-12.2-4.6-4.5 0-8.7 1.6-11.9 4.4l-9.8-9.4c1.7-2.2 2.7-4.9 2.7-7.9C28.6 8.8 22.8 3 15.7 3S2.9 8.8 2.9 15.8s5.8 12.8 12.8 12.8c2.8 0 5.4-.9 7.5-2.4l9.9 9.5c-2.5 3.2-4.1 7.2-4.1 11.6 0 3.1.8 6 2.1 8.6l-9.5 7c-1.7-1.7-4.2-2.8-6.8-2.8-5.3 0-9.6 4.3-9.6 9.6s4.3 9.6 9.6 9.6 9.6-4.3 9.6-9.6c0-1.3-.3-2.6-.7-3.7l9.4-7c3 3.7 7.4 6.2 12.3 6.7L44 78.8c-5.3.1-9.5 4.3-9.5 9.6s4.3 9.6 9.6 9.6 9.6-4.3 9.6-9.6c0-4-2.5-7.5-6.1-8.9l1.5-13.7c5.9-.5 11-3.8 14-8.5l9.3 3.9c-.1.8-.2 1.8-.2 2.8 0 7.1 5.8 12.8 12.8 12.8 7.1 0 12.8-5.8 12.8-12.8.1-7.1-5.7-12.8-12.7-12.8zM14.9 75.6C11.6 75.6 9 73 9 69.7c0-3.3 2.6-5.9 5.9-5.9s5.9 2.6 5.9 5.9c0 3.3-2.7 5.9-5.9 5.9zM83.4 8.2c3.3 0 5.9 2.6 5.9 5.9S86.7 20 83.4 20c-3.3 0-5.9-2.6-5.9-5.9s2.7-5.9 5.9-5.9zM6.6 15.8c0-5 4.1-9.1 9.1-9.1s9.1 4.1 9.1 9.1-4.1 9.2-9.1 9.2-9.1-4.1-9.1-9.2zM50 88.4c0 3.3-2.6 5.9-5.9 5.9-3.3 0-5.9-2.6-5.9-5.9 0-3.3 2.6-5.9 5.9-5.9 3.3 0 5.9 2.7 5.9 5.9zm-2.4-26.3c-8.2 0-14.9-6.7-14.9-14.9s6.7-14.9 14.9-14.9S62.5 39 62.5 47.2s-6.7 14.9-14.9 14.9zm37.5 11c-5 0-9.1-4.1-9.1-9.1s4.1-9.1 9.1-9.1 9.1 4.1 9.1 9.1-4.1 9.1-9.1 9.1z"></path></g><!----><g data-v-423bf9ae="" id="75d8ae60-7861-4b08-992c-97ca1d689386" fill="#ffffff" transform="matrix(0.7858173389956399,0,0,0.7858173389956399,119.35632339744006,56.28308541627072)"><path d="M6.62 14.38L6.62 14.38L6.62 14.38Q6.97 14.98 6.97 15.54L6.97 15.54L6.97 15.54Q6.97 15.67 6.95 15.77L6.95 15.77L6.95 15.77Q6.93 15.88 6.90 15.99L6.90 15.99L6.90 15.99Q6.66 15.96 6.41 15.95L6.41 15.95L6.41 15.95Q6.15 15.93 5.87 15.93L5.87 15.93L5.87 15.93Q5.53 15.93 5.19 15.95L5.19 15.95L5.19 15.95Q4.84 15.97 4.42 16.02L4.42 16.02L4.42 16.02Q4.00 16.06 3.49 16.13L3.49 16.13L3.49 16.13Q2.97 16.20 2.28 16.31L2.28 16.31L2.28 16.31Q1.96 16.20 1.64 15.87L1.64 15.87L1.64 15.87Q1.32 15.54 1.04 15.08L1.04 15.08L1.04 15.08Q1.18 14.77 1.39 14.31L1.39 14.31L1.39 14.31Q1.60 13.86 1.88 13.21L1.88 13.21L1.88 13.21Q2.16 12.56 2.50 11.68L2.50 11.68L2.50 11.68Q2.84 10.81 3.23 9.66L3.23 9.66L3.23 9.66Q3.49 8.90 3.67 8.33L3.67 8.33L3.67 8.33Q3.85 7.76 4.00 7.22L4.00 7.22L4.00 7.22Q4.14 6.68 4.28 6.09L4.28 6.09L4.28 6.09Q4.42 5.50 4.59 4.73L4.59 4.73L4.59 4.73Q5.15 4.84 5.57 5.14L5.57 5.14L5.57 5.14Q5.98 5.45 6.36 6.01L6.36 6.01L6.36 6.01Q6.24 6.19 6.06 6.59L6.06 6.59L6.06 6.59Q5.88 7 5.63 7.58L5.63 7.58L5.63 7.58Q5.39 8.16 5.10 8.90L5.10 8.90L5.10 8.90Q4.80 9.63 4.48 10.47L4.48 10.47L4.48 10.47Q4.17 11.30 3.88 12.03L3.88 12.03L3.88 12.03Q3.58 12.75 3.35 13.34L3.35 13.34L3.35 13.34Q3.12 13.93 2.98 14.35L2.98 14.35L2.98 14.35Q2.84 14.77 2.84 14.98L2.84 14.98L2.84 14.98Q3.07 14.97 3.25 14.95L3.25 14.95L3.25 14.95Q3.43 14.94 3.63 14.90L3.63 14.90L3.63 14.90Q3.82 14.87 4.05 14.82L4.05 14.82L4.05 14.82Q4.28 14.77 4.61 14.69L4.61 14.69L4.61 14.69Q4.89 14.62 5.12 14.57L5.12 14.57L5.12 14.57Q5.36 14.52 5.59 14.48L5.59 14.48L5.59 14.48Q5.82 14.45 6.07 14.43L6.07 14.43L6.07 14.43Q6.31 14.41 6.62 14.38ZM15.58 14.38L15.58 14.38L15.58 14.38Q15.58 13.87 15.74 13.07L15.74 13.07L15.74 13.07Q15.90 12.26 16.16 11.33L16.16 11.33L16.16 11.33Q16.42 10.40 16.76 9.43L16.76 9.43L16.76 9.43Q17.09 8.46 17.44 7.60L17.44 7.60L17.44 7.60Q17.79 6.75 18.13 6.10L18.13 6.10L18.13 6.10Q18.47 5.46 18.73 5.18L18.73 5.18L18.73 5.18Q18.87 5.19 19.10 5.29L19.10 5.29L19.10 5.29Q19.33 5.38 19.57 5.50L19.57 5.50L19.57 5.50Q19.81 5.63 20.01 5.78L20.01 5.78L20.01 5.78Q20.20 5.92 20.26 6.05L20.26 6.05L20.26 6.05Q19.85 6.41 19.45 7.15L19.45 7.15L19.45 7.15Q19.05 7.88 18.68 8.82L18.68 8.82L18.68 8.82Q18.31 9.76 17.99 10.80L17.99 10.80L17.99 10.80Q17.67 11.84 17.43 12.82L17.43 12.82L17.43 12.82Q17.19 13.80 17.06 14.64L17.06 14.64L17.06 14.64Q16.93 15.48 16.93 16.00L16.93 16.00L16.93 16.00Q16.93 16.24 16.97 16.30L16.97 16.30L16.97 16.30Q16.66 16.28 16.52 16.19L16.52 16.19L16.52 16.19Q16.38 16.10 16.30 16.00L16.30 16.00L16.30 16.00Q16.23 15.89 16.16 15.79L16.16 15.79L16.16 15.79Q16.10 15.68 15.97 15.62L15.97 15.62L15.97 15.62Q15.88 15.58 15.81 15.43L15.81 15.43L15.81 15.43Q15.74 15.27 15.69 15.09L15.69 15.09L15.69 15.09Q15.64 14.90 15.61 14.70L15.61 14.70L15.61 14.70Q15.58 14.50 15.58 14.38ZM31.02 16.07L31.02 16.07L31.02 16.07Q30.70 16.24 30.34 16.24L30.34 16.24L30.34 16.24Q29.89 16.18 29.48 16.02L29.48 16.02L29.48 16.02Q29.06 15.85 28.87 15.61L28.87 15.61L28.87 15.61Q28.76 14.92 28.69 14.35L28.69 14.35L28.69 14.35Q28.62 13.78 28.57 13.27L28.57 13.27L28.57 13.27Q28.53 12.75 28.52 12.29L28.52 12.29L28.52 12.29Q28.50 11.82 28.50 11.34L28.50 11.34L28.50 11.34Q28.50 10.71 28.52 10.01L28.52 10.01L28.52 10.01Q28.53 9.31 28.55 8.52L28.55 8.52L28.55 8.52Q28.57 7.73 28.59 6.82L28.59 6.82L28.59 6.82Q28.60 5.92 28.60 4.86L28.60 4.86L28.60 4.86Q28.78 4.86 29.15 4.96L29.15 4.96L29.15 4.96Q29.51 5.07 29.87 5.21L29.87 5.21L29.87 5.21Q30.23 5.35 30.51 5.49L30.51 5.49L30.51 5.49Q30.79 5.64 30.81 5.74L30.81 5.74L30.81 5.74Q30.67 6.13 30.57 6.76L30.57 6.76L30.57 6.76Q30.46 7.39 30.40 8.16L30.40 8.16L30.40 8.16Q30.34 8.93 30.31 9.79L30.31 9.79L30.31 9.79Q30.28 10.64 30.28 11.48L30.28 11.48L30.28 11.48Q30.28 12.11 30.30 12.61L30.30 12.61L30.30 12.61Q30.31 13.10 30.33 13.50L30.33 13.50L30.33 13.50Q30.35 13.90 30.39 14.25L30.39 14.25L30.39 14.25Q30.44 14.59 30.49 14.92L30.49 14.92L30.49 14.92Q30.88 13.73 31.35 12.54L31.35 12.54L31.35 12.54Q31.82 11.35 32.32 10.25L32.32 10.25L32.32 10.25Q32.82 9.16 33.31 8.20L33.31 8.20L33.31 8.20Q33.80 7.25 34.24 6.54L34.24 6.54L34.24 6.54Q34.68 5.84 35.03 5.43L35.03 5.43L35.03 5.43Q35.38 5.01 35.60 4.98L35.60 4.98L35.60 4.98Q35.76 5.01 35.93 5.10L35.93 5.10L35.93 5.10Q36.11 5.19 36.26 5.32L36.26 5.32L36.26 5.32Q36.41 5.45 36.54 5.60L36.54 5.60L36.54 5.60Q36.67 5.75 36.74 5.91L36.74 5.91L36.74 5.91Q36.22 6.09 35.62 6.76L35.62 6.76L35.62 6.76Q35.03 7.43 34.43 8.38L34.43 8.38L34.43 8.38Q33.82 9.32 33.26 10.44L33.26 10.44L33.26 10.44Q32.69 11.55 32.23 12.61L32.23 12.61L32.23 12.61Q31.78 13.68 31.46 14.60L31.46 14.60L31.46 14.60Q31.14 15.53 31.02 16.07ZM47.99 9.21L47.99 9.21L47.99 9.21Q48.45 9.21 48.71 9.46L48.71 9.46L48.71 9.46Q48.97 9.72 48.97 10.16L48.97 10.16L48.97 10.16Q48.97 10.28 48.95 10.39L48.95 10.39L48.95 10.39Q48.93 10.51 48.90 10.60L48.90 10.60L48.90 10.60Q48.72 10.57 48.50 10.55L48.50 10.55L48.50 10.55Q48.27 10.53 47.96 10.53L47.96 10.53L47.96 10.53Q47.36 10.53 46.75 10.63L46.75 10.63L46.75 10.63Q46.13 10.74 45.57 10.81L45.57 10.81L45.57 10.81Q45.25 11.55 44.98 12.24L44.98 12.24L44.98 12.24Q44.72 12.94 44.53 13.51L44.53 13.51L44.53 13.51Q44.34 14.08 44.23 14.50L44.23 14.50L44.23 14.50Q44.13 14.92 44.11 15.13L44.11 15.13L44.11 15.13Q45.25 14.90 46.40 14.73L46.40 14.73L46.40 14.73Q47.56 14.56 48.83 14.48L48.83 14.48L48.83 14.48Q48.99 14.71 49.09 14.99L49.09 14.99L49.09 14.99Q49.20 15.27 49.20 15.60L49.20 15.60L49.20 15.60Q49.20 15.68 49.20 15.78L49.20 15.78L49.20 15.78Q49.20 15.88 49.17 15.97L49.17 15.97L49.17 15.97Q48.78 15.96 48.34 15.95L48.34 15.95L48.34 15.95Q47.91 15.95 47.21 15.95L47.21 15.95L47.21 15.95Q46.75 15.95 46.33 15.97L46.33 15.97L46.33 15.97Q45.92 15.99 45.50 16.03L45.50 16.03L45.50 16.03Q45.08 16.07 44.61 16.14L44.61 16.14L44.61 16.14Q44.14 16.21 43.55 16.31L43.55 16.31L43.55 16.31Q42.91 16.06 42.31 15.08L42.31 15.08L42.31 15.08Q42.55 14.57 42.97 13.54L42.97 13.54L42.97 13.54Q43.40 12.52 44.06 10.79L44.06 10.79L44.06 10.79Q43.43 10.60 43.23 10.09L43.23 10.09L43.23 10.09Q43.30 10.02 43.64 9.92L43.64 9.92L43.64 9.92Q43.97 9.81 44.46 9.70L44.46 9.70L44.46 9.70Q44.67 9.16 44.82 8.75L44.82 8.75L44.82 8.75Q44.97 8.34 45.08 7.99L45.08 7.99L45.08 7.99Q45.19 7.63 45.28 7.29L45.28 7.29L45.28 7.29Q45.37 6.94 45.46 6.54L45.46 6.54L45.46 6.54Q44.97 6.51 44.69 6.27L44.69 6.27L44.69 6.27Q44.41 6.02 44.41 5.63L44.41 5.63L44.41 5.63Q44.41 5.52 44.44 5.36L44.44 5.36L44.44 5.36Q44.48 5.21 44.52 5.10L44.52 5.10L44.52 5.10Q44.80 5.14 45.06 5.15L45.06 5.15L45.06 5.15Q45.32 5.17 45.74 5.17L45.74 5.17L45.74 5.17Q46.62 5.17 47.39 5.12L47.39 5.12L47.39 5.12Q48.16 5.07 48.78 5.01L48.78 5.01L48.78 5.01Q49.41 4.96 49.85 4.91L49.85 4.91L49.85 4.91Q50.30 4.86 50.54 4.86L50.54 4.86L50.54 4.86Q50.86 4.86 51.11 5.19L51.11 5.19L51.11 5.19Q51.37 5.53 51.49 6.15L51.49 6.15L51.49 6.15Q51.06 6.10 50.78 6.09L50.78 6.09L50.78 6.09Q50.51 6.08 50.30 6.08L50.30 6.08L50.30 6.08Q49.53 6.08 48.89 6.15L48.89 6.15L48.89 6.15Q48.26 6.23 47.67 6.31L47.67 6.31L47.67 6.31Q47.59 6.44 47.48 6.64L47.48 6.64L47.48 6.64Q47.38 6.83 47.21 7.18L47.21 7.18L47.21 7.18Q47.04 7.53 46.80 8.06L46.80 8.06L46.80 8.06Q46.55 8.60 46.20 9.39L46.20 9.39L46.20 9.39Q46.73 9.31 47.20 9.26L47.20 9.26L47.20 9.26Q47.67 9.21 47.99 9.21ZM68.49 14.38L68.49 14.38L68.49 14.38Q68.49 13.87 68.65 13.07L68.65 13.07L68.65 13.07Q68.81 12.26 69.07 11.33L69.07 11.33L69.07 11.33Q69.33 10.40 69.66 9.43L69.66 9.43L69.66 9.43Q70 8.46 70.35 7.60L70.35 7.60L70.35 7.60Q70.70 6.75 71.04 6.10L71.04 6.10L71.04 6.10Q71.37 5.46 71.64 5.18L71.64 5.18L71.64 5.18Q71.78 5.19 72.01 5.29L72.01 5.29L72.01 5.29Q72.24 5.38 72.48 5.50L72.48 5.50L72.48 5.50Q72.72 5.63 72.91 5.78L72.91 5.78L72.91 5.78Q73.11 5.92 73.16 6.05L73.16 6.05L73.16 6.05Q72.76 6.41 72.36 7.15L72.36 7.15L72.36 7.15Q71.96 7.88 71.59 8.82L71.59 8.82L71.59 8.82Q71.22 9.76 70.90 10.80L70.90 10.80L70.90 10.80Q70.57 11.84 70.34 12.82L70.34 12.82L70.34 12.82Q70.10 13.80 69.97 14.64L69.97 14.64L69.97 14.64Q69.83 15.48 69.83 16.00L69.83 16.00L69.83 16.00Q69.83 16.24 69.87 16.30L69.87 16.30L69.87 16.30Q69.57 16.28 69.43 16.19L69.43 16.19L69.43 16.19Q69.29 16.10 69.21 16.00L69.21 16.00L69.21 16.00Q69.13 15.89 69.07 15.79L69.07 15.79L69.07 15.79Q69.01 15.68 68.88 15.62L68.88 15.62L68.88 15.62Q68.78 15.58 68.71 15.43L68.71 15.43L68.71 15.43Q68.64 15.27 68.59 15.09L68.59 15.09L68.59 15.09Q68.54 14.90 68.52 14.70L68.52 14.70L68.52 14.70Q68.49 14.50 68.49 14.38ZM80.72 16.24L80.72 16.24L80.72 16.24Q79.93 16.00 79.65 15.79L79.65 15.79L79.65 15.79Q79.37 15.57 79.37 15.19L79.37 15.19L79.37 15.19Q79.37 14.77 79.56 14.01L79.56 14.01L79.56 14.01Q79.76 13.24 80.07 12.31L80.07 12.31L80.07 12.31Q80.39 11.37 80.79 10.35L80.79 10.35L80.79 10.35Q81.20 9.32 81.62 8.39L81.62 8.39L81.62 8.39Q82.04 7.45 82.44 6.67L82.44 6.67L82.44 6.67Q82.84 5.89 83.15 5.46L83.15 5.46L83.05 4.87L83.05 4.87Q83.24 4.87 83.59 4.97L83.59 4.97L83.59 4.97Q83.94 5.07 84.30 5.21L84.30 5.21L84.30 5.21Q84.66 5.35 84.93 5.49L84.93 5.49L84.93 5.49Q85.20 5.64 85.23 5.74L85.23 5.74L85.23 5.74Q85.16 6.08 85.12 6.76L85.12 6.76L85.12 6.76Q85.08 7.43 85.08 8.20L85.08 8.20L85.08 8.20Q85.08 9.73 85.20 11.19L85.20 11.19L85.20 11.19Q85.32 12.66 85.75 14.17L85.75 14.17L85.75 14.17Q85.97 13.05 86.23 11.94L86.23 11.94L86.23 11.94Q86.49 10.82 86.77 9.81L86.77 9.81L86.77 9.81Q87.05 8.79 87.33 7.92L87.33 7.92L87.33 7.92Q87.61 7.06 87.87 6.40L87.87 6.40L87.87 6.40Q88.13 5.75 88.35 5.38L88.35 5.38L88.35 5.38Q88.58 5.01 88.76 4.98L88.76 4.98L88.76 4.98Q88.91 5.01 89.10 5.10L89.10 5.10L89.10 5.10Q89.28 5.19 89.45 5.32L89.45 5.32L89.45 5.32Q89.61 5.45 89.75 5.60L89.75 5.60L89.75 5.60Q89.89 5.75 89.98 5.91L89.98 5.91L89.98 5.91Q89.53 6.09 89.09 6.76L89.09 6.76L89.09 6.76Q88.65 7.43 88.25 8.39L88.25 8.39L88.25 8.39Q87.85 9.35 87.51 10.47L87.51 10.47L87.51 10.47Q87.16 11.59 86.90 12.68L86.90 12.68L86.90 12.68Q86.65 13.76 86.50 14.69L86.50 14.69L86.50 14.69Q86.35 15.61 86.34 16.17L86.34 16.17L86.34 16.17Q86.34 16.20 86.35 16.21L86.35 16.21L86.35 16.21Q86.31 16.23 86.26 16.23L86.26 16.23L86.26 16.23Q86.21 16.23 86.17 16.23L86.17 16.23L86.17 16.23Q85.53 16.23 85.03 16.07L85.03 16.07L85.03 16.07Q84.53 15.90 84.38 15.61L84.38 15.61L84.38 15.61Q84.08 14.43 83.89 13.34L83.89 13.34L83.89 13.34Q83.69 12.25 83.56 11.16L83.56 11.16L83.56 11.16Q83.43 10.07 83.35 8.95L83.35 8.95L83.35 8.95Q83.27 7.84 83.23 6.62L83.23 6.62L83.23 6.62Q82.96 7.04 82.67 7.72L82.67 7.72L82.67 7.72Q82.38 8.40 82.10 9.21L82.10 9.21L82.10 9.21Q81.82 10.02 81.56 10.92L81.56 10.92L81.56 10.92Q81.30 11.82 81.10 12.67L81.10 12.67L81.10 12.67Q80.91 13.52 80.79 14.29L80.79 14.29L80.79 14.29Q80.68 15.05 80.68 15.61L80.68 15.61L80.68 15.61Q80.68 15.90 80.69 16.03L80.69 16.03L80.69 16.03Q80.70 16.16 80.72 16.24ZM109.14 6.69L109.14 6.69L109.14 6.69Q108.58 6.69 108.28 6.38L108.28 6.38L108.28 6.38Q107.98 6.06 107.98 5.61L107.98 5.61L107.98 5.61Q107.98 5.50 108.02 5.35L108.02 5.35L108.02 5.35Q108.05 5.19 108.11 5.08L108.11 5.08L108.11 5.08Q108.29 5.17 108.65 5.20L108.65 5.20L108.65 5.20Q109.00 5.24 109.48 5.24L109.48 5.24L109.48 5.24Q110.19 5.24 111.10 5.17L111.10 5.17L111.10 5.17Q112.00 5.11 112.83 5.04L112.83 5.04L112.83 5.04Q113.65 4.97 114.28 4.91L114.28 4.91L114.28 4.91Q114.91 4.84 115.09 4.84L115.09 4.84L115.09 4.84Q115.61 4.84 115.84 5.23L115.84 5.23L115.84 5.23Q116.07 5.61 116.19 6.26L116.19 6.26L116.19 6.26Q115.82 6.23 115.46 6.21L115.46 6.21L115.46 6.21Q115.11 6.19 114.86 6.19L114.86 6.19L114.86 6.19Q114.41 6.19 113.95 6.22L113.95 6.22L113.95 6.22Q113.50 6.24 113.04 6.30L113.04 6.30L113.04 6.30Q112.84 6.71 112.60 7.26L112.60 7.26L112.60 7.26Q112.36 7.81 112.13 8.41L112.13 8.41L112.13 8.41Q111.90 9.02 111.69 9.61L111.69 9.61L111.69 9.61Q111.48 10.21 111.33 10.68L111.33 10.68L111.33 10.68Q111.02 11.61 110.79 12.39L110.79 12.39L110.79 12.39Q110.56 13.17 110.38 13.85L110.38 13.85L110.38 13.85Q110.21 14.53 110.08 15.15L110.08 15.15L110.08 15.15Q109.96 15.76 109.86 16.35L109.86 16.35L109.86 16.35Q108.92 16.21 108.29 15.18L108.29 15.18L108.29 15.18Q108.40 14.74 108.56 14.23L108.56 14.23L108.56 14.23Q108.72 13.72 108.94 13.07L108.94 13.07L108.94 13.07Q109.16 12.42 109.45 11.59L109.45 11.59L109.45 11.59Q109.75 10.77 110.12 9.72L110.12 9.72L110.12 9.72Q110.26 9.32 110.42 8.90L110.42 8.90L110.42 8.90Q110.57 8.47 110.72 8.05L110.72 8.05L110.72 8.05Q110.87 7.63 110.98 7.24L110.98 7.24L110.98 7.24Q111.10 6.85 111.19 6.52L111.19 6.52L111.19 6.52Q110.60 6.59 110.07 6.64L110.07 6.64L110.07 6.64Q109.55 6.69 109.14 6.69ZM127.06 14.36L127.06 14.36L127.06 14.36Q127.06 13.78 127.26 12.85L127.26 12.85L127.26 12.85Q127.46 11.93 127.78 10.88L127.78 10.88L127.78 10.88Q126.85 10.95 125.92 11.06L125.92 11.06L125.92 11.06Q124.99 11.17 124.31 11.19L124.31 11.19L124.31 11.19Q123.68 12.66 123.30 13.89L123.30 13.89L123.30 13.89Q122.93 15.13 122.72 16.31L122.72 16.31L122.72 16.31Q122.19 16.18 121.84 15.87L121.84 15.87L121.84 15.87Q121.49 15.55 121.20 15.08L121.20 15.08L121.20 15.08Q121.31 14.85 121.46 14.50L121.46 14.50L121.46 14.50Q121.60 14.15 121.81 13.66L121.81 13.66L121.81 13.66Q122.01 13.16 122.27 12.50L122.27 12.50L122.27 12.50Q122.53 11.83 122.86 10.95L122.86 10.95L122.86 10.95Q122.40 10.75 122.25 10.40L122.25 10.40L122.25 10.40Q122.32 10.35 122.56 10.28L122.56 10.28L122.56 10.28Q122.81 10.22 123.17 10.15L123.17 10.15L123.35 9.70L123.35 9.70Q123.65 8.95 123.84 8.43L123.84 8.43L123.84 8.43Q124.03 7.91 124.16 7.41L124.16 7.41L124.16 7.41Q124.29 6.92 124.41 6.31L124.41 6.31L124.41 6.31Q124.53 5.71 124.70 4.79L124.70 4.79L124.70 4.79Q125.29 4.90 125.77 5.31L125.77 5.31L125.77 5.31Q126.25 5.71 126.60 6.29L126.60 6.29L126.60 6.29Q126.48 6.45 126.29 6.79L126.29 6.79L126.29 6.79Q126.11 7.13 125.89 7.59L125.89 7.59L125.89 7.59Q125.68 8.06 125.43 8.64L125.43 8.64L125.43 8.64Q125.17 9.23 124.88 9.87L124.88 9.87L124.88 9.87Q125.75 9.76 126.64 9.66L126.64 9.66L126.64 9.66Q127.53 9.56 128.21 9.52L128.21 9.52L128.21 9.52Q128.46 8.79 128.74 8.10L128.74 8.10L128.74 8.10Q129.01 7.41 129.28 6.83L129.28 6.83L129.28 6.83Q129.54 6.26 129.79 5.82L129.79 5.82L129.79 5.82Q130.03 5.39 130.23 5.18L130.23 5.18L130.23 5.18Q130.37 5.19 130.60 5.29L130.60 5.29L130.60 5.29Q130.83 5.38 131.07 5.50L131.07 5.50L131.07 5.50Q131.31 5.63 131.50 5.78L131.50 5.78L131.50 5.78Q131.70 5.92 131.77 6.05L131.77 6.05L131.77 6.05Q131.52 6.29 131.26 6.66L131.26 6.66L131.26 6.66Q131.01 7.04 130.77 7.53L130.77 7.53L130.77 7.53Q130.52 8.02 130.28 8.60L130.28 8.60L130.28 8.60Q130.05 9.17 129.84 9.79L129.84 9.79L129.84 9.79Q130.12 10.04 130.12 10.42L130.12 10.42L130.12 10.42Q130.12 10.68 130.00 10.91L130.00 10.91L130.00 10.91Q129.88 10.88 129.75 10.87L129.75 10.87L129.75 10.87Q129.63 10.86 129.49 10.85L129.49 10.85L129.49 10.85Q129.25 11.61 129.05 12.35L129.05 12.35L129.05 12.35Q128.86 13.09 128.72 13.76L128.72 13.76L128.72 13.76Q128.59 14.43 128.51 14.99L128.51 14.99L128.51 14.99Q128.44 15.55 128.44 15.93L128.44 15.93L128.44 15.93Q128.44 16.07 128.44 16.16L128.44 16.16L128.44 16.16Q128.45 16.24 128.46 16.30L128.46 16.30L128.46 16.30Q128.16 16.28 128.02 16.19L128.02 16.19L128.02 16.19Q127.88 16.10 127.81 16.00L127.81 16.00L127.81 16.00Q127.74 15.89 127.68 15.79L127.68 15.79L127.68 15.79Q127.62 15.68 127.50 15.62L127.50 15.62L127.50 15.62Q127.40 15.58 127.32 15.43L127.32 15.43L127.32 15.43Q127.23 15.27 127.18 15.08L127.18 15.08L127.18 15.08Q127.12 14.88 127.09 14.69L127.09 14.69L127.09 14.69Q127.06 14.49 127.06 14.36ZM143.84 9.21L143.84 9.21L143.84 9.21Q144.30 9.21 144.56 9.46L144.56 9.46L144.56 9.46Q144.82 9.72 144.82 10.16L144.82 10.16L144.82 10.16Q144.82 10.28 144.79 10.39L144.79 10.39L144.79 10.39Q144.77 10.51 144.75 10.60L144.75 10.60L144.75 10.60Q144.56 10.57 144.34 10.55L144.34 10.55L144.34 10.55Q144.12 10.53 143.81 10.53L143.81 10.53L143.81 10.53Q143.21 10.53 142.59 10.63L142.59 10.63L142.59 10.63Q141.97 10.74 141.41 10.81L141.41 10.81L141.41 10.81Q141.09 11.55 140.83 12.24L140.83 12.24L140.83 12.24Q140.56 12.94 140.37 13.51L140.37 13.51L140.37 13.51Q140.18 14.08 140.08 14.50L140.08 14.50L140.08 14.50Q139.97 14.92 139.96 15.13L139.96 15.13L139.96 15.13Q141.09 14.90 142.25 14.73L142.25 14.73L142.25 14.73Q143.40 14.56 144.68 14.48L144.68 14.48L144.68 14.48Q144.83 14.71 144.93 14.99L144.93 14.99L144.93 14.99Q145.04 15.27 145.04 15.60L145.04 15.60L145.04 15.60Q145.04 15.68 145.04 15.78L145.04 15.78L145.04 15.78Q145.04 15.88 145.01 15.97L145.01 15.97L145.01 15.97Q144.62 15.96 144.19 15.95L144.19 15.95L144.19 15.95Q143.75 15.95 143.05 15.95L143.05 15.95L143.05 15.95Q142.59 15.95 142.18 15.97L142.18 15.97L142.18 15.97Q141.76 15.99 141.34 16.03L141.34 16.03L141.34 16.03Q140.92 16.07 140.45 16.14L140.45 16.14L140.45 16.14Q139.99 16.21 139.40 16.31L139.40 16.31L139.40 16.31Q138.75 16.06 138.15 15.08L138.15 15.08L138.15 15.08Q138.39 14.57 138.82 13.54L138.82 13.54L138.82 13.54Q139.24 12.52 139.90 10.79L139.90 10.79L139.90 10.79Q139.27 10.60 139.08 10.09L139.08 10.09L139.08 10.09Q139.15 10.02 139.48 9.92L139.48 9.92L139.48 9.92Q139.82 9.81 140.31 9.70L140.31 9.70L140.31 9.70Q140.52 9.16 140.66 8.75L140.66 8.75L140.66 8.75Q140.81 8.34 140.92 7.99L140.92 7.99L140.92 7.99Q141.04 7.63 141.13 7.29L141.13 7.29L141.13 7.29Q141.22 6.94 141.30 6.54L141.30 6.54L141.30 6.54Q140.81 6.51 140.53 6.27L140.53 6.27L140.53 6.27Q140.25 6.02 140.25 5.63L140.25 5.63L140.25 5.63Q140.25 5.52 140.29 5.36L140.29 5.36L140.29 5.36Q140.32 5.21 140.36 5.10L140.36 5.10L140.36 5.10Q140.64 5.14 140.90 5.15L140.90 5.15L140.90 5.15Q141.16 5.17 141.58 5.17L141.58 5.17L141.58 5.17Q142.46 5.17 143.23 5.12L143.23 5.12L143.23 5.12Q144.00 5.07 144.63 5.01L144.63 5.01L144.63 5.01Q145.25 4.96 145.70 4.91L145.70 4.91L145.70 4.91Q146.15 4.86 146.38 4.86L146.38 4.86L146.38 4.86Q146.71 4.86 146.96 5.19L146.96 5.19L146.96 5.19Q147.21 5.53 147.34 6.15L147.34 6.15L147.34 6.15Q146.90 6.10 146.63 6.09L146.63 6.09L146.63 6.09Q146.36 6.08 146.15 6.08L146.15 6.08L146.15 6.08Q145.38 6.08 144.74 6.15L144.74 6.15L144.74 6.15Q144.10 6.23 143.51 6.31L143.51 6.31L143.51 6.31Q143.43 6.44 143.32 6.64L143.32 6.64L143.32 6.64Q143.22 6.83 143.05 7.18L143.05 7.18L143.05 7.18Q142.88 7.53 142.64 8.06L142.64 8.06L142.64 8.06Q142.39 8.60 142.04 9.39L142.04 9.39L142.04 9.39Q142.58 9.31 143.04 9.26L143.04 9.26L143.04 9.26Q143.51 9.21 143.84 9.21ZM169.78 9.34L169.78 9.34L169.78 9.34Q170.23 9.34 170.48 9.59L170.48 9.59L170.48 9.59Q170.74 9.84 170.74 10.29L170.74 10.29L170.74 10.29Q170.74 10.40 170.73 10.52L170.73 10.52L170.73 10.52Q170.72 10.64 170.67 10.72L170.67 10.72L170.67 10.72Q170.49 10.70 170.27 10.68L170.27 10.68L170.27 10.68Q170.04 10.65 169.74 10.65L169.74 10.65L169.74 10.65Q169.11 10.65 168.48 10.77L168.48 10.77L168.48 10.77Q167.85 10.88 167.27 10.95L167.27 10.95L167.27 10.95Q166.64 12.43 166.24 13.73L166.24 13.73L166.24 13.73Q165.83 15.04 165.61 16.31L165.61 16.31L165.61 16.31Q165.13 16.20 164.77 15.90L164.77 15.90L164.77 15.90Q164.40 15.61 164.08 15.08L164.08 15.08L164.08 15.08Q164.18 14.85 164.32 14.54L164.32 14.54L164.32 14.54Q164.46 14.22 164.65 13.74L164.65 13.74L164.65 13.74Q164.85 13.26 165.12 12.56L165.12 12.56L165.12 12.56Q165.40 11.87 165.77 10.91L165.77 10.91L165.77 10.91Q165.19 10.71 165.00 10.22L165.00 10.22L165.00 10.22Q165.07 10.15 165.40 10.06L165.40 10.06L165.40 10.06Q165.72 9.97 166.18 9.86L166.18 9.86L166.18 9.86Q166.39 9.31 166.54 8.88L166.54 8.88L166.54 8.88Q166.70 8.46 166.82 8.07L166.82 8.07L166.82 8.07Q166.95 7.69 167.05 7.32L167.05 7.32L167.05 7.32Q167.16 6.94 167.24 6.52L167.24 6.52L167.17 6.52L167.17 6.52Q166.64 6.52 166.31 6.27L166.31 6.27L166.31 6.27Q165.98 6.02 165.98 5.61L165.98 5.61L165.98 5.61Q165.98 5.50 166.02 5.35L166.02 5.35L166.02 5.35Q166.05 5.19 166.11 5.08L166.11 5.08L166.11 5.08Q166.38 5.12 166.63 5.14L166.63 5.14L166.63 5.14Q166.89 5.15 167.31 5.15L167.31 5.15L167.31 5.15Q168.20 5.15 168.97 5.10L168.97 5.10L168.97 5.10Q169.74 5.05 170.36 5.00L170.36 5.00L170.36 5.00Q170.98 4.94 171.43 4.89L171.43 4.89L171.43 4.89Q171.88 4.84 172.12 4.84L172.12 4.84L172.12 4.84Q172.44 4.84 172.69 5.18L172.69 5.18L172.69 5.18Q172.94 5.52 173.08 6.13L173.08 6.13L173.08 6.13Q172.63 6.09 172.36 6.08L172.36 6.08L172.36 6.08Q172.09 6.06 171.88 6.06L171.88 6.06L171.88 6.06Q171.16 6.06 170.57 6.13L170.57 6.13L170.57 6.13Q169.97 6.19 169.44 6.27L169.44 6.27L169.44 6.27Q169.36 6.40 169.25 6.59L169.25 6.59L169.25 6.59Q169.15 6.79 168.98 7.15L168.98 7.15L168.98 7.15Q168.81 7.50 168.55 8.08L168.55 8.08L168.55 8.08Q168.29 8.65 167.90 9.53L167.90 9.53L167.90 9.53Q168.45 9.45 168.94 9.39L168.94 9.39L168.94 9.39Q169.44 9.34 169.78 9.34ZM184.00 5.75L184.00 5.75L184.00 5.75Q183.39 6.58 182.88 7.57L182.88 7.57L182.88 7.57Q182.38 8.57 182.02 9.61L182.02 9.61L182.02 9.61Q181.66 10.65 181.47 11.67L181.47 11.67L181.47 11.67Q181.29 12.68 181.29 13.57L181.29 13.57L181.29 13.57Q181.29 14.66 181.61 15.15L181.61 15.15L181.61 15.15Q181.93 15.64 182.71 15.64L182.71 15.64L182.71 15.64Q183.62 15.64 184.31 15.00L184.31 15.00L184.31 15.00Q185.00 14.36 185.60 13.24L185.60 13.24L185.60 13.24Q185.99 12.52 186.27 11.65L186.27 11.65L186.27 11.65Q186.55 10.78 186.72 9.86L186.72 9.86L186.72 9.86Q186.90 8.95 186.98 8.02L186.98 8.02L186.98 8.02Q187.07 7.08 187.07 6.23L187.07 6.23L187.07 6.23Q187.07 5.68 187.05 5.43L187.05 5.43L187.05 5.43Q187.04 5.18 187.01 5.03L187.01 5.03L187.01 5.03Q187.05 5.03 187.22 5.05L187.22 5.05L187.22 5.05Q187.39 5.08 187.61 5.12L187.61 5.12L187.61 5.12Q187.82 5.17 188.04 5.24L188.04 5.24L188.04 5.24Q188.26 5.31 188.41 5.39L188.41 5.39L188.41 5.39Q188.34 6.45 188.15 7.59L188.15 7.59L188.15 7.59Q187.96 8.72 187.66 9.83L187.66 9.83L187.66 9.83Q187.35 10.93 186.94 11.96L186.94 11.96L186.94 11.96Q186.54 12.98 186.03 13.79L186.03 13.79L186.03 13.79Q185.29 14.99 184.37 15.67L184.37 15.67L184.37 15.67Q183.44 16.35 182.18 16.35L182.18 16.35L182.18 16.35Q180.89 16.35 180.18 15.60L180.18 15.60L180.18 15.60Q179.47 14.85 179.47 13.33L179.47 13.33L179.47 13.33Q179.47 12.45 179.66 11.33L179.66 11.33L179.66 11.33Q179.86 10.22 180.19 9.07L180.19 9.07L180.19 9.07Q180.52 7.91 180.95 6.81L180.95 6.81L180.95 6.81Q181.38 5.71 181.86 4.84L181.86 4.84L181.86 4.84Q182.10 4.86 182.42 4.94L182.42 4.94L182.42 4.94Q182.74 5.03 183.05 5.16L183.05 5.16L183.05 5.16Q183.36 5.29 183.62 5.45L183.62 5.45L183.62 5.45Q183.88 5.61 184.00 5.75ZM198.04 6.69L198.04 6.69L198.04 6.69Q197.48 6.69 197.18 6.38L197.18 6.38L197.18 6.38Q196.88 6.06 196.88 5.61L196.88 5.61L196.88 5.61Q196.88 5.50 196.92 5.35L196.92 5.35L196.92 5.35Q196.95 5.19 197.01 5.08L197.01 5.08L197.01 5.08Q197.19 5.17 197.55 5.20L197.55 5.20L197.55 5.20Q197.90 5.24 198.38 5.24L198.38 5.24L198.38 5.24Q199.09 5.24 200.00 5.17L200.00 5.17L200.00 5.17Q200.90 5.11 201.73 5.04L201.73 5.04L201.73 5.04Q202.55 4.97 203.18 4.91L203.18 4.91L203.18 4.91Q203.81 4.84 203.99 4.84L203.99 4.84L203.99 4.84Q204.51 4.84 204.74 5.23L204.74 5.23L204.74 5.23Q204.97 5.61 205.09 6.26L205.09 6.26L205.09 6.26Q204.72 6.23 204.37 6.21L204.37 6.21L204.37 6.21Q204.01 6.19 203.76 6.19L203.76 6.19L203.76 6.19Q203.31 6.19 202.85 6.22L202.85 6.22L202.85 6.22Q202.40 6.24 201.94 6.30L201.94 6.30L201.94 6.30Q201.74 6.71 201.50 7.26L201.50 7.26L201.50 7.26Q201.26 7.81 201.03 8.41L201.03 8.41L201.03 8.41Q200.80 9.02 200.59 9.61L200.59 9.61L200.59 9.61Q200.38 10.21 200.23 10.68L200.23 10.68L200.23 10.68Q199.92 11.61 199.69 12.39L199.69 12.39L199.69 12.39Q199.46 13.17 199.28 13.85L199.28 13.85L199.28 13.85Q199.11 14.53 198.98 15.15L198.98 15.15L198.98 15.15Q198.86 15.76 198.76 16.35L198.76 16.35L198.76 16.35Q197.82 16.21 197.19 15.18L197.19 15.18L197.19 15.18Q197.30 14.74 197.46 14.23L197.46 14.23L197.46 14.23Q197.62 13.72 197.84 13.07L197.84 13.07L197.84 13.07Q198.06 12.42 198.35 11.59L198.35 11.59L198.35 11.59Q198.65 10.77 199.02 9.72L199.02 9.72L199.02 9.72Q199.16 9.32 199.32 8.90L199.32 8.90L199.32 8.90Q199.47 8.47 199.62 8.05L199.62 8.05L199.62 8.05Q199.77 7.63 199.88 7.24L199.88 7.24L199.88 7.24Q200.00 6.85 200.09 6.52L200.09 6.52L200.09 6.52Q199.50 6.59 198.97 6.64L198.97 6.64L198.97 6.64Q198.45 6.69 198.04 6.69ZM215.88 5.75L215.88 5.75L215.88 5.75Q215.26 6.58 214.76 7.57L214.76 7.57L214.76 7.57Q214.26 8.57 213.90 9.61L213.90 9.61L213.90 9.61Q213.54 10.65 213.35 11.67L213.35 11.67L213.35 11.67Q213.16 12.68 213.16 13.57L213.16 13.57L213.16 13.57Q213.16 14.66 213.49 15.15L213.49 15.15L213.49 15.15Q213.81 15.64 214.59 15.64L214.59 15.64L214.59 15.64Q215.50 15.64 216.19 15.00L216.19 15.00L216.19 15.00Q216.87 14.36 217.48 13.24L217.48 13.24L217.48 13.24Q217.87 12.52 218.15 11.65L218.15 11.65L218.15 11.65Q218.43 10.78 218.60 9.86L218.60 9.86L218.60 9.86Q218.78 8.95 218.86 8.02L218.86 8.02L218.86 8.02Q218.95 7.08 218.95 6.23L218.95 6.23L218.95 6.23Q218.95 5.68 218.93 5.43L218.93 5.43L218.93 5.43Q218.92 5.18 218.89 5.03L218.89 5.03L218.89 5.03Q218.93 5.03 219.10 5.05L219.10 5.05L219.10 5.05Q219.27 5.08 219.49 5.12L219.49 5.12L219.49 5.12Q219.70 5.17 219.92 5.24L219.92 5.24L219.92 5.24Q220.14 5.31 220.29 5.39L220.29 5.39L220.29 5.39Q220.22 6.45 220.03 7.59L220.03 7.59L220.03 7.59Q219.84 8.72 219.53 9.83L219.53 9.83L219.53 9.83Q219.23 10.93 218.82 11.96L218.82 11.96L218.82 11.96Q218.41 12.98 217.91 13.79L217.91 13.79L217.91 13.79Q217.17 14.99 216.24 15.67L216.24 15.67L216.24 15.67Q215.32 16.35 214.06 16.35L214.06 16.35L214.06 16.35Q212.77 16.35 212.06 15.60L212.06 15.60L212.06 15.60Q211.34 14.85 211.34 13.33L211.34 13.33L211.34 13.33Q211.34 12.45 211.54 11.33L211.54 11.33L211.54 11.33Q211.74 10.22 212.06 9.07L212.06 9.07L212.06 9.07Q212.39 7.91 212.83 6.81L212.83 6.81L212.83 6.81Q213.26 5.71 213.74 4.84L213.74 4.84L213.74 4.84Q213.98 4.86 214.30 4.94L214.30 4.94L214.30 4.94Q214.62 5.03 214.93 5.16L214.93 5.16L214.93 5.16Q215.24 5.29 215.50 5.45L215.50 5.45L215.50 5.45Q215.75 5.61 215.88 5.75ZM236.78 7.46L236.78 7.46L236.78 7.46Q236.78 8.13 236.48 8.73L236.48 8.73L236.48 8.73Q236.18 9.32 235.65 9.79L235.65 9.79L235.65 9.79Q235.12 10.26 234.40 10.58L234.40 10.58L234.40 10.58Q233.69 10.91 232.85 11.02L232.85 11.02L232.85 11.02Q233.06 11.65 233.36 12.31L233.36 12.31L233.36 12.31Q233.66 12.98 234.01 13.59L234.01 13.59L234.01 13.59Q234.36 14.21 234.74 14.73L234.74 14.73L234.74 14.73Q235.12 15.25 235.48 15.58L235.48 15.58L235.48 15.58Q235.41 15.72 235.28 15.86L235.28 15.86L235.28 15.86Q235.14 16.00 234.97 16.12L234.97 16.12L234.97 16.12Q234.79 16.24 234.61 16.32L234.61 16.32L234.61 16.32Q234.42 16.39 234.25 16.39L234.25 16.39L234.25 16.39Q233.94 16.39 233.66 16.10L233.66 16.10L233.66 16.10Q233.38 15.81 233.09 15.17L233.09 15.17L233.09 15.17Q232.81 14.53 232.49 13.52L232.49 13.52L232.49 13.52Q232.18 12.50 231.80 11.07L231.80 11.07L231.80 11.07Q231.64 11.07 231.49 11.07L231.49 11.07L231.49 11.07Q231.34 11.07 231.25 11.05L231.25 11.05L231.25 11.05Q231.15 10.99 231.04 10.85L231.04 10.85L231.04 10.85Q230.66 11.66 230.37 12.38L230.37 12.38L230.37 12.38Q230.08 13.09 229.85 13.76L229.85 13.76L229.85 13.76Q229.61 14.42 229.44 15.04L229.44 15.04L229.44 15.04Q229.26 15.67 229.14 16.31L229.14 16.31L229.14 16.31Q228.66 16.20 228.31 15.90L228.31 15.90L228.31 15.90Q227.96 15.61 227.65 15.08L227.65 15.08L227.65 15.08Q227.71 14.95 227.77 14.83L227.77 14.83L227.77 14.83Q227.84 14.71 227.93 14.50L227.93 14.50L227.93 14.50Q228.03 14.28 228.18 13.94L228.18 13.94L228.18 13.94Q228.33 13.61 228.57 13.05L228.57 13.05L228.57 13.05Q228.82 12.49 229.16 11.68L229.16 11.68L229.16 11.68Q229.50 10.86 229.99 9.70L229.99 9.70L229.99 9.70Q230.22 9.18 230.38 8.79L230.38 8.79L230.38 8.79Q230.54 8.40 230.66 8.04L230.66 8.04L230.66 8.04Q230.79 7.69 230.90 7.33L230.90 7.33L230.90 7.33Q231 6.97 231.11 6.51L231.11 6.51L231.11 6.51Q230.47 6.73 229.92 7.01L229.92 7.01L229.92 7.01Q229.36 7.28 229.00 7.59L229.00 7.59L229.00 7.59Q228.87 7.50 228.74 7.34L228.74 7.34L228.74 7.34Q228.61 7.17 228.49 6.96L228.49 6.96L228.49 6.96Q228.38 6.76 228.30 6.55L228.30 6.55L228.30 6.55Q228.21 6.34 228.20 6.17L228.20 6.17L228.20 6.17Q228.62 5.89 229.23 5.66L229.23 5.66L229.23 5.66Q229.84 5.42 230.52 5.24L230.52 5.24L230.52 5.24Q231.21 5.07 231.92 4.97L231.92 4.97L231.92 4.97Q232.64 4.87 233.25 4.87L233.25 4.87L233.25 4.87Q234.93 4.87 235.86 5.56L235.86 5.56L235.86 5.56Q236.78 6.26 236.78 7.46ZM233.20 6.02L233.37 6.29L233.37 6.29Q233.27 6.41 233.06 6.79L233.06 6.79L233.06 6.79Q232.85 7.17 232.58 7.69L232.58 7.69L232.58 7.69Q232.30 8.22 232.00 8.83L232.00 8.83L232.00 8.83Q231.70 9.45 231.42 10.05L231.42 10.05L231.42 10.05Q232.47 10.05 233.35 9.86L233.35 9.86L233.35 9.86Q234.23 9.66 234.88 9.30L234.88 9.30L234.88 9.30Q235.52 8.95 235.88 8.46L235.88 8.46L235.88 8.46Q236.24 7.98 236.24 7.39L236.24 7.39L236.24 7.39Q236.24 6.69 235.73 6.32L235.73 6.32L235.73 6.32Q235.23 5.95 234.18 5.95L234.18 5.95L234.18 5.95Q233.94 5.95 233.70 5.97L233.70 5.97L233.70 5.97Q233.46 5.99 233.20 6.02L233.20 6.02ZM249.61 9.21L249.61 9.21L249.61 9.21Q250.07 9.21 250.33 9.46L250.33 9.46L250.33 9.46Q250.59 9.72 250.59 10.16L250.59 10.16L250.59 10.16Q250.59 10.28 250.57 10.39L250.57 10.39L250.57 10.39Q250.54 10.51 250.52 10.60L250.52 10.60L250.52 10.60Q250.33 10.57 250.11 10.55L250.11 10.55L250.11 10.55Q249.89 10.53 249.58 10.53L249.58 10.53L249.58 10.53Q248.98 10.53 248.36 10.63L248.36 10.63L248.36 10.63Q247.74 10.74 247.18 10.81L247.18 10.81L247.18 10.81Q246.86 11.55 246.60 12.24L246.60 12.24L246.60 12.24Q246.33 12.94 246.14 13.51L246.14 13.51L246.14 13.51Q245.95 14.08 245.85 14.50L245.85 14.50L245.85 14.50Q245.74 14.92 245.73 15.13L245.73 15.13L245.73 15.13Q246.86 14.90 248.02 14.73L248.02 14.73L248.02 14.73Q249.17 14.56 250.45 14.48L250.45 14.48L250.45 14.48Q250.60 14.71 250.71 14.99L250.71 14.99L250.71 14.99Q250.81 15.27 250.81 15.60L250.81 15.60L250.81 15.60Q250.81 15.68 250.81 15.78L250.81 15.78L250.81 15.78Q250.81 15.88 250.78 15.97L250.78 15.97L250.78 15.97Q250.39 15.96 249.96 15.95L249.96 15.95L249.96 15.95Q249.52 15.95 248.82 15.95L248.82 15.95L248.82 15.95Q248.36 15.95 247.95 15.97L247.95 15.97L247.95 15.97Q247.53 15.99 247.11 16.03L247.11 16.03L247.11 16.03Q246.69 16.07 246.23 16.14L246.23 16.14L246.23 16.14Q245.76 16.21 245.17 16.31L245.17 16.31L245.17 16.31Q244.52 16.06 243.92 15.08L243.92 15.08L243.92 15.08Q244.16 14.57 244.59 13.54L244.59 13.54L244.59 13.54Q245.01 12.52 245.67 10.79L245.67 10.79L245.67 10.79Q245.04 10.60 244.85 10.09L244.85 10.09L244.85 10.09Q244.92 10.02 245.25 9.92L245.25 9.92L245.25 9.92Q245.59 9.81 246.08 9.70L246.08 9.70L246.08 9.70Q246.29 9.16 246.44 8.75L246.44 8.75L246.44 8.75Q246.58 8.34 246.69 7.99L246.69 7.99L246.69 7.99Q246.81 7.63 246.90 7.29L246.90 7.29L246.90 7.29Q246.99 6.94 247.07 6.54L247.07 6.54L247.07 6.54Q246.58 6.51 246.30 6.27L246.30 6.27L246.30 6.27Q246.02 6.02 246.02 5.63L246.02 5.63L246.02 5.63Q246.02 5.52 246.06 5.36L246.06 5.36L246.06 5.36Q246.09 5.21 246.13 5.10L246.13 5.10L246.13 5.10Q246.41 5.14 246.67 5.15L246.67 5.15L246.67 5.15Q246.93 5.17 247.35 5.17L247.35 5.17L247.35 5.17Q248.23 5.17 249.00 5.12L249.00 5.12L249.00 5.12Q249.77 5.07 250.40 5.01L250.40 5.01L250.40 5.01Q251.02 4.96 251.47 4.91L251.47 4.91L251.47 4.91Q251.92 4.86 252.15 4.86L252.15 4.86L252.15 4.86Q252.48 4.86 252.73 5.19L252.73 5.19L252.73 5.19Q252.98 5.53 253.11 6.15L253.11 6.15L253.11 6.15Q252.67 6.10 252.40 6.09L252.40 6.09L252.40 6.09Q252.13 6.08 251.92 6.08L251.92 6.08L251.92 6.08Q251.15 6.08 250.51 6.15L250.51 6.15L250.51 6.15Q249.87 6.23 249.28 6.31L249.28 6.31L249.28 6.31Q249.20 6.44 249.10 6.64L249.10 6.64L249.10 6.64Q248.99 6.83 248.82 7.18L248.82 7.18L248.82 7.18Q248.65 7.53 248.41 8.06L248.41 8.06L248.41 8.06Q248.16 8.60 247.81 9.39L247.81 9.39L247.81 9.39Q248.35 9.31 248.82 9.26L248.82 9.26L248.82 9.26Q249.28 9.21 249.61 9.21Z"></path></g></svg>